<?xml version="1.0" encoding="utf-8"?>
<!-- Generator: Adobe Illustrator 17.1.0, SVG Export Plug-In . SVG Version: 6.00 Build 0)  -->
<!DOCTYPE svg PUBLIC "-//W3C//DTD SVG 1.1//EN" "http://www.w3.org/Graphics/SVG/1.1/DTD/svg11.dtd">
<svg version="1.1" xmlns="http://www.w3.org/2000/svg" xmlns:xlink="http://www.w3.org/1999/xlink" x="0px" y="0px"
	 viewBox="0 0 606.1 579.1" enable-background="new 0 0 606.1 579.1" xml:space="preserve">
<g id="Layer_22">
	<path display="none" fill="#0F0E0E" d="M309.5,407.8l-8.2-13.6l-1.4-3c-0.9-2-0.6-4.3,0.7-6l0,0c1.3-1.6,3.2-2.5,5.3-2.5h8.5
		l47.3-3.1c2.6-0.2,5.1,1.2,6.3,3.5l26.3,47.3c1.9,3.3-0.5,7.5-4.4,7.5l-44.8,0.6h-16.3L309.5,407.8z"/>
</g>
<g id="Layer_21">
</g>
<g id="Layer_20">
</g>
<g id="Layer_19">
</g>
<g id="Layer_18">
</g>
<g id="Layer_17">
</g>
<g id="Layer_16">
</g>
<g id="Layer_15">
</g>
<g id="Layer_14">
</g>
<g id="Layer_13">
</g>
<g id="Layer_12">
</g>
<g id="Layer_11">
</g>
<g id="Layer_10">
</g>
<g id="Layer_9">
</g>
<g id="Layer_8">
</g>
<g id="Layer_7">
</g>
<g id="Layer_6">
</g>
<g id="Layer_5">
</g>
<g id="Layer_4">
</g>
<g id="Layer_3">
</g>
<g id="Layer_2">
	<g>
		<path fill="#5BAC8B" d="M409.9,212l-74.1-15.5c-13.2-2.8-22.6-14.4-22.6-27.9V54.7c0-9.1,9.7-15,17.8-10.8l75.4,39
			c10.8,5.6,17.6,16.7,17.6,28.9v88.8C423.9,208,417.1,213.5,409.9,212z"/>
		<path fill="#F9F9F9" d="M494.2,229.9l-41.7-8.3c-9.6-1.9-16.5-10.3-16.5-20.1v-88.6c0-6.4,6.8-10.6,12.5-7.6l44.3,22.6
			c6.7,3.4,10.9,10.3,10.9,17.8v76.6C503.7,227.1,499.1,230.9,494.2,229.9z"/>
		<path fill="#F9F9F9" d="M550,241.9l-28.3-6c-5.6-1.2-9.6-6.1-9.6-11.9v-76.1c0-4.9,5.2-8.1,9.6-5.8l25,13.3
			c7,3.7,11.3,10.9,11.3,18.8v61.2C558,239.6,554.1,242.8,550,241.9z"/>
		<path fill="#5BAC8B" d="M407.5,357.4l-72.3,9.9c-11.6,1.6-22-7.5-22-19.2V233.7c0-10.8,9.6-19,20.3-17.3l72.3,11.7
			c10.5,1.7,18.1,10.7,18.1,21.3v89.2C423.9,348.1,416.9,356.2,407.5,357.4z"/>
		<path fill="#5BAC8B" d="M492.7,345.6l-41,5.5c-8.3,1.1-15.6-5.3-15.6-13.7v-88.8c0-7.3,6.5-12.8,13.6-11.6l42.7,6.9
			c6.5,1.1,11.3,6.7,11.3,13.3v75.9C503.7,339.4,499,344.8,492.7,345.6z"/>
		<path fill="#5BAC8B" d="M549.7,337.8l-25.7,3.9c-6.3,0.9-12-3.9-12-10.3V257c0-5.5,5-9.6,10.3-8.6l25.8,4.8c5.6,1,9.7,6,9.7,11.7
			v63.3C558,333,554.5,337.1,549.7,337.8z"/>
		<path fill="#5BAC8B" d="M408,502.6l-77.1,36.1c-8.2,3.9-17.7-2.2-17.7-11.2V413.6c0-13.4,9.7-24.8,22.9-27l73.4-12.3
			c7.6-1.3,14.4,4.6,14.4,12.2v91C423.9,488.3,417.7,498,408,502.6z"/>
		<path fill="#5BAC8B" d="M494.2,460.4l-45.4,22c-5.2,2.5-11.2-1.3-11.2-7V384c0-8.2,5.9-15.2,13.9-16.6l44.2-7.9
			c4.2-0.7,8,2.5,8,6.7v79C503.7,451.7,500,457.6,494.2,460.4z"/>
		<path fill="#5BAC8B" d="M550.9,433.6l-28.4,14.1c-4.8,2.4-10.3-1.1-10.3-6.4v-74.8c0-6.3,4.5-11.7,10.7-12.7l26.1-4.4
			c4.7-0.8,9.1,2.8,9.1,7.7v65.1C558,427,555.2,431.4,550.9,433.6z"/>
		<path fill="#4682B4" d="M200.1,212l74.1-15.5c13.2-2.8,22.6-14.4,22.6-27.9V54.7c0-9.1-9.7-15-17.8-10.8l-75.4,39
			c-10.8,5.6-17.6,16.7-17.6,28.9v88.8C186.1,208,192.8,213.5,200.1,212z"/>
		<path fill="#F9F9F9" d="M115.7,229.9l41.7-8.3c9.6-1.9,16.5-10.3,16.5-20.1v-88.6c0-6.4-6.8-10.6-12.5-7.6l-44.3,22.6
			c-6.7,3.4-10.9,10.3-10.9,17.8v76.6C106.3,227.1,110.8,230.9,115.7,229.9z"/>
		<path fill="#4682B4" d="M60,241.9l28.3-6c5.6-1.2,9.6-6.1,9.6-11.9v-76.1c0-4.9-5.2-8.1-9.6-5.8l-25,13.3
			c-7,3.7-11.3,10.9-11.3,18.8v61.2C52,239.6,55.9,242.8,60,241.9z"/>
		<path fill="#4682B4" d="M202.5,357.4l72.3,9.9c11.6,1.6,22-7.5,22-19.2V233.7c0-10.8-9.6-19-20.3-17.3l-72.3,11.7
			c-10.5,1.7-18.1,10.7-18.1,21.3v89.2C186.1,348.1,193.1,356.2,202.5,357.4z"/>
		<path fill="#4682B4" d="M117.2,345.6l41,5.5c8.3,1.1,15.6-5.3,15.6-13.7v-88.8c0-7.3-6.5-12.8-13.6-11.6l-42.7,6.9
			c-6.5,1.1-11.3,6.7-11.3,13.3v75.9C106.3,339.4,111,344.8,117.2,345.6z"/>
		<path fill="#4682B4" d="M60.3,337.8l25.7,3.9c6.3,0.9,12-3.9,12-10.3V257c0-5.5-5-9.6-10.3-8.6l-25.8,4.8c-5.6,1-9.7,6-9.7,11.7
			v63.3C52,333,55.5,337.1,60.3,337.8z"/>
		<path fill="#4682B4" d="M202,502.6l77.1,36.1c8.2,3.9,17.7-2.2,17.7-11.2V413.6c0-13.4-9.7-24.8-22.9-27l-73.4-12.3
			c-7.6-1.3-14.4,4.6-14.4,12.2v91C186.1,488.3,192.3,498,202,502.6z"/>
		<path fill="#F9F9F9" d="M115.8,460.4l45.4,22c5.2,2.5,11.2-1.3,11.2-7V384c0-8.2-5.9-15.2-13.9-16.6l-44.2-7.9
			c-4.2-0.7-8,2.5-8,6.7v79C106.3,451.7,110,457.6,115.8,460.4z"/>
		<path fill="#F9F9F9" d="M59.1,433.6l28.4,14.1c4.8,2.4,10.3-1.1,10.3-6.4v-74.8c0-6.3-4.5-11.7-10.7-12.7L61,349.3
			c-4.7-0.8-9.1,2.8-9.1,7.7v65.1C52,427,54.7,431.4,59.1,433.6z"/>
	</g>
</g>
</svg>
